<svg width="143" height="58" viewBox="0 0 143 58" fill="none" xmlns="http://www.w3.org/2000/svg">
<path d="M44.065 32.9855C44.065 34.6492 43.9577 36.1518 43.743 37.4935H9.8525C10.1208 41.0355 11.4357 43.8798 13.797 46.0265C16.1583 48.1732 19.0563 49.2465 22.491 49.2465C27.4283 49.2465 30.9167 47.1803 32.956 43.048H42.8575C41.5158 47.1267 39.074 50.4808 35.532 53.1105C32.0437 55.6865 27.6967 56.9745 22.491 56.9745C18.2513 56.9745 14.441 56.0353 11.06 54.157C7.73267 52.225 5.103 49.5417 3.171 46.107C1.29267 42.6187 0.3535 38.5937 0.3535 34.032C0.3535 29.4703 1.26583 25.4722 3.0905 22.0375C4.96883 18.5492 7.57167 15.8658 10.899 13.9875C14.28 12.1092 18.144 11.17 22.491 11.17C26.677 11.17 30.4068 12.0823 33.6805 13.907C36.9542 15.7317 39.5033 18.3077 41.328 21.635C43.1527 24.9087 44.065 28.6922 44.065 32.9855ZM34.4855 30.0875C34.4318 26.7065 33.2243 23.9963 30.863 21.957C28.5017 19.9177 25.5768 18.898 22.0885 18.898C18.9222 18.898 16.212 19.9177 13.958 21.957C11.704 23.9427 10.3623 26.6528 9.933 30.0875H34.4855ZM75.7166 56.25L62.8366 33.871H55.8331V56.25H46.6561V0.302496H65.9761C70.2694 0.302496 73.8919 1.05383 76.8436 2.5565C79.8489 4.05916 82.0761 6.07166 83.5251 8.594C85.0278 11.1163 85.7791 13.9338 85.7791 17.0465C85.7791 20.6958 84.7058 24.0232 82.5591 27.0285C80.4661 29.9802 77.2193 31.9927 72.8186 33.066L86.6646 56.25H75.7166ZM55.8331 26.5455H65.9761C69.4108 26.5455 71.9868 25.6868 73.7041 23.9695C75.4751 22.2522 76.3606 19.9445 76.3606 17.0465C76.3606 14.1485 75.5019 11.8945 73.7846 10.2845C72.0673 8.62083 69.4644 7.789 65.9761 7.789H55.8331V26.5455Z" fill="#212121"/>
<path d="M142.357 21.6208L140.745 27.1631H131.351L126.752 42.7678C125.913 45.6503 125.494 47.786 125.494 49.1748C125.494 50.1968 125.809 51.0484 126.438 51.7297C127.093 52.3848 127.944 52.7124 128.993 52.7124C131.22 52.7124 133.002 50.9829 134.338 47.5239H135.871C134.115 53.9702 130.958 57.1934 126.398 57.1934C124.485 57.1934 122.939 56.63 121.76 55.5032C120.607 54.3764 120.031 52.7779 120.031 50.7078C120.031 49.0831 120.411 46.8164 121.17 43.9077L122.153 40.1736C122.232 39.8067 122.35 39.3612 122.507 38.8372L126.202 27.1631H118.222L114.056 41.51C112.143 48.0873 110.623 52.3455 109.496 54.2847C108.396 56.2238 106.941 57.1934 105.133 57.1934C104.216 57.1934 103.378 56.9051 102.618 56.3286C101.858 55.7783 101.478 55.0315 101.478 54.0881C101.478 52.8303 102.434 51.0877 104.347 48.8604C109.09 43.305 112.615 36.0726 114.921 27.1631H112.051C107.544 27.1631 104.635 28.5519 103.325 31.3296H101.832C104.216 24.8571 108.409 21.6208 114.41 21.6208H142.357Z" fill="#D7FE62"/>
</svg>
