<svg width="60" height="40" viewBox="0 0 60 40" fill="none" xmlns="http://www.w3.org/2000/svg">
<mask id="mask0_1_13344" style="mask-type:alpha" maskUnits="userSpaceOnUse" x="0" y="0" width="60" height="40">
<rect width="60" height="40" fill="#8BCF7B"/>
</mask>
<g mask="url(#mask0_1_13344)">
<path d="M21.24 20.908C21.24 21.4867 21.2027 22.0093 21.128 22.476H9.34C9.43333 23.708 9.89067 24.6973 10.712 25.444C11.5333 26.1907 12.5413 26.564 13.736 26.564C15.4533 26.564 16.6667 25.8453 17.376 24.408H20.82C20.3533 25.8267 19.504 26.9933 18.272 27.908C17.0587 28.804 15.5467 29.252 13.736 29.252C12.2613 29.252 10.936 28.9253 9.76 28.272C8.60267 27.6 7.688 26.6667 7.016 25.472C6.36267 24.2587 6.036 22.8587 6.036 21.272C6.036 19.6853 6.35333 18.2947 6.988 17.1C7.64133 15.8867 8.54667 14.9533 9.704 14.3C10.88 13.6467 12.224 13.32 13.736 13.32C15.192 13.32 16.4893 13.6373 17.628 14.272C18.7667 14.9067 19.6533 15.8027 20.288 16.96C20.9227 18.0987 21.24 19.4147 21.24 20.908ZM17.908 19.9C17.8893 18.724 17.4693 17.7813 16.648 17.072C15.8267 16.3627 14.8093 16.008 13.596 16.008C12.4947 16.008 11.552 16.3627 10.768 17.072C9.984 17.7627 9.51733 18.7053 9.368 19.9H17.908ZM32.2493 29L27.7693 21.216H25.3333V29H22.1413V9.54H28.8613C30.3546 9.54 31.6146 9.80133 32.6413 10.324C33.6866 10.8467 34.4613 11.5467 34.9653 12.424C35.4879 13.3013 35.7493 14.2813 35.7493 15.364C35.7493 16.6333 35.3759 17.7907 34.6293 18.836C33.9013 19.8627 32.7719 20.5627 31.2413 20.936L36.0573 29H32.2493ZM25.3333 18.668H28.8613C30.0559 18.668 30.9519 18.3693 31.5493 17.772C32.1653 17.1747 32.4733 16.372 32.4733 15.364C32.4733 14.356 32.1746 13.572 31.5773 13.012C30.9799 12.4333 30.0746 12.144 28.8613 12.144H25.3333V18.668Z" fill="#212121"/>
<path d="M55.4284 16.9551L54.8679 18.8828H51.6003L50.0007 24.3105C49.709 25.3132 49.5632 26.056 49.5632 26.5391C49.5632 26.8945 49.6726 27.1908 49.8913 27.4277C50.1192 27.6556 50.4154 27.7695 50.78 27.7695C51.5547 27.7695 52.1745 27.168 52.6394 25.9648H53.1726C52.5619 28.207 51.4636 29.3281 49.8777 29.3281C49.2123 29.3281 48.6745 29.1322 48.2644 28.7402C47.8633 28.3483 47.6628 27.7923 47.6628 27.0723C47.6628 26.5072 47.795 25.7188 48.0593 24.707L48.4011 23.4082C48.4284 23.2806 48.4695 23.1257 48.5241 22.9434L49.8093 18.8828H47.0339L45.5847 23.873C44.9193 26.1608 44.3907 27.6419 43.9987 28.3164C43.6159 28.9909 43.1101 29.3281 42.4812 29.3281C42.1622 29.3281 41.8705 29.2279 41.6062 29.0273C41.3418 28.8359 41.2097 28.5762 41.2097 28.248C41.2097 27.8105 41.5424 27.2044 42.2077 26.4297C43.8575 24.4974 45.0834 21.9818 45.8855 18.8828H44.8874C43.3197 18.8828 42.308 19.3659 41.8523 20.332H41.3327C42.1622 18.0807 43.6205 16.9551 45.7077 16.9551H55.4284Z" fill="#2C78C9"/>
</g>
</svg>
